<svg xmlns:xlink="http://www.w3.org/1999/xlink" width="414" xmlns="http://www.w3.org/2000/svg" viewBox="0 0 414 148" height="148">
    <style type="text/css"><![CDATA[
.st2 {fill:#1f6391;font-family:宋体;font-size:10pt}
.st1 {fill:#344961;font-family:宋体;font-size:10pt}
.st3 {fill:#924961;font-family:宋体;font-size:10pt}
]]></style>
    <defs/>
    <g transform="translate(1,1)">
        <g transform="translate(0.02,30)">
            <g transform="translate(-0.02,4.71)">
                <path id="shape1" stroke="#8d9cb1" fill="#e9ebef" d="M.4,0L38,0C38.2,0,38.4,.2,38.4,.4L38.4,84.5C38.4,84.7,38.2,84.9,38,84.9L.4,84.9C.2,84.9,0,84.7,0,84.5L0,.4C0,.2,.2,0,.4,0z"/>
                <path id="shape2" transform="translate(2.6,2.55)" stroke="#8d9cb1" fill="#e9ebef" d="M.4,0L16.5,0C16.7,0,16.9,.2,16.9,.4L16.9,50.5C16.9,50.7,16.7,50.9,16.5,50.9L.4,50.9C.2,50.9,0,50.7,0,50.5L0,.4C0,.2,.2,0,.4,0z"/>
                <path id="shape3" transform="translate(2.6,53.47)" stroke="#8d9cb1" fill="#e9ebef" d="M.4,0L16.5,0C16.7,0,16.9,.2,16.9,.5L16.9,28.4C16.9,28.6,16.7,28.9,16.5,28.9L.4,28.9C.2,28.9,0,28.6,0,28.4L0,.5C0,.2,.2,0,.4,0z"/>
                <path id="shape4" transform="translate(19.38,2.55)" stroke="#8d9cb1" fill="#e9ebef" d="M.4,0L15.7,0C16,0,16.1,.2,16.1,.4L16.1,79.3C16.1,79.6,16,79.8,15.7,79.8L.4,79.8C.2,79.8,0,79.6,0,79.3L0,.4C0,.2,.2,0,.4,0z"/>
                <path id="shape5" transform="translate(0.23,0.07)" stroke="#8d9cb1" fill="#e9ebef" d="M0,0L24.6,0L17.4,84.7L.1,84.7L0,0z"/>
                <g transform="translate(25.26,51.96)">
                    <path id="shape6" stroke="#8d9cb1" fill="#e9ebef" d="M0,3.1C0,1.4,1.4,0,3.1,0C4.8,0,6.1,1.4,6.1,3.1C6.1,4.8,4.8,6.1,3.1,6.1C1.4,6.1,0,4.8,0,3.1z"/>
                    <path id="shape7" transform="translate(0.68,0.68)" stroke="#8d9cb1" fill="#e9ebef" d="M0,2.4C0,1.1,1.1,0,2.4,0C3.7,0,4.8,1.1,4.8,2.4C4.8,3.7,3.7,4.8,2.4,4.8C1.1,4.8,0,3.7,0,2.4z"/>
                    <path id="shape8" transform="translate(0.68,0.68)" stroke="#8d9cb1" fill="#e9ebef" d="M0,2.4C0,1.1,1.1,0,2.4,0C3.7,0,4.8,1.1,4.8,2.4C4.8,3.7,3.7,4.8,2.4,4.8C1.1,4.8,0,3.7,0,2.4z"/>
                    <g transform="translate(1.97,1.49)">
                        <path id="shape9" transform="translate(0.92,0)" stroke="#8d9cb1" fill="#e9ebef" d="M.2,-0C.3,-0,.4,.1,.4,.2L.4,1.4C.4,1.5,.3,1.5,.2,1.5C.1,1.5,-0,1.5,-0,1.4L-0,.2C-0,.1,.1,-0,.2,-0z"/>
                        <path id="shape10" transform="translate(0,0.63)" stroke="#8d9cb1" fill="#e9ebef" d="M.7,.3C.9,.3,.7,-0.1,.6,0C.5,.1,0,.3,0,.9C-0,1.6,.5,2.1,1.1,2.1C1.7,2.1,2.2,1.7,2.2,1C2.2,.2,1.4,-0,1.4,0C1.3,.1,1.3,.2,1.5,.3C1.7,.4,1.8,.8,1.8,1C1.8,1.2,1.8,1.7,1.1,1.7C.4,1.7,.3,1.2,.3,1C.3,.8,.4,.4,.7,.3z"/>
                    </g>
                </g>
            </g>
            <g transform="translate(143.42,85.81)">
                <path id="shape11" transform="translate(0.48,-0.02)" stroke="#8d9cb1" fill="#e9ebef" d="M0,3.1C.6,1.7,2.5,.7,3.6,.4C4.7,.1,6.8,-0.2,8.4,.3C9.7,.6,11.1,1.5,11.7,3.3C12.1,4.2,12.3,5.7,12,6.4C11.8,6.9,10.3,7.7,8,7.6C5.1,7.4,3.3,6.4,3.3,6.4C3.3,6.4,2.6,3.4,1.8,2.8C1.3,2.4,.5,2.3,0,3.1z"/>
                <path id="shape12" transform="translate(0.07,2.37)" stroke="#8d9cb1" fill="#e9ebef" d="M0,1.9C0,1.9,2.9,3.7,3.7,4C3.5,3.1,3.1,.3,1.6,.1C.3,-0.3,0,1.9,0,1.9z"/>
                <path id="shape13" transform="translate(4.58,1.63)" stroke="#8d9cb1" fill="#e9ebef" d="M1.5,0C.7,0,0,.6,0,1.3C0,2,.7,2.6,1.5,2.6C2.4,2.6,3,2,3,1.3C3,.6,2.4,0,1.5,0z"/>
            </g>
            <g transform="translate(49.38,85.09)">
                <path id="shape14" transform="translate(-0.01,0.71)" stroke="#8d9cb1" fill="#e9ebef" d="M1.6,0C1.6,0,.6,2.5,.2,4.1C0,5.7,-0.3,8,.6,8.2C.6,8.2,87,8.2,87,8.2C87.6,7.8,88.3,7.6,87,4.4C85.6,1.3,83,0,83,0L1.6,0z"/>
                <path id="shape15" transform="translate(0.19,0.74)" stroke="#8d9cb1" fill="#e9ebef" d="M1.6,.1C1.6,.1,.6,2.3,.2,3.8C0,5.3,-0.3,7.3,.6,7.5C.6,7.5,86.3,7.5,86.3,7.5C86.9,7.2,87.6,7,86.3,4.1C85,1.2,83.1,0,83.1,0L1.6,.1z"/>
                <g transform="translate(70.03,0.64)">
                    <path id="shape16" transform="translate(0.01,0.01)" stroke="#8d9cb1" fill="#e9ebef" d="M.1,1.8L4,1.9L3,0L.4,0L.1,1.8z"/>
                    <path id="shape17" transform="translate(3.21,0.06)" stroke="#8d9cb1" fill="#e9ebef" d="M0,1.8L4.3,1.8L3.5,0L.8,0L0,1.8z"/>
                    <path id="shape18" transform="translate(6.81,0.06)" stroke="#8d9cb1" fill="#e9ebef" d="M-0,1.8L4,1.8L3,0L.6,0L-0,1.8z"/>
                    <path id="shape19" transform="translate(10.14,0.03)" stroke="#8d9cb1" fill="#e9ebef" d="M0,1.8L3.7,1.8L3,0L.6,0L0,1.8z"/>
                </g>
                <g transform="translate(57.29,0.07)">
                    <path id="shape20" transform="translate(-0.01,-0.02)" stroke="#8d9cb1" fill="#e9ebef" d="M.1,1.8L3.9,1.9L2.9,0L.4,0L.1,1.8z"/>
                    <path id="shape21" transform="translate(3.11,0.03)" stroke="#8d9cb1" fill="#e9ebef" d="M0,1.8L4.3,1.8L3.5,0L.8,0L0,1.8z"/>
                    <path id="shape22" transform="translate(6.71,0.03)" stroke="#8d9cb1" fill="#e9ebef" d="M-0,1.8L4,1.8L3,0L.6,0L-0,1.8z"/>
                </g>
                <g transform="translate(57.26,0.35)">
                    <path id="shape23" transform="translate(-0.02,0.01)" stroke="#8d9cb1" fill="#e9ebef" d="M0,1.3L3.7,1.3L3.3,0L.5,0L0,1.3z"/>
                    <path id="shape24" transform="translate(3.68,0.02)" stroke="#8d9cb1" fill="#e9ebef" d="M0,1.3L3.5,1.3L3.1,0L.4,0L0,1.3z"/>
                    <path id="shape25" transform="translate(7.13,0.01)" stroke="#8d9cb1" fill="#e9ebef" d="M0,1.3L3.2,1.3L2.8,0L.4,0L0,1.3z"/>
                </g>
                <g transform="translate(2.33,0.05)">
                    <g transform="translate(38.49,0)">
                        <path id="shape26" transform="translate(6.93,-0.01)" stroke="#8d9cb1" fill="#e9ebef" d="M0,1.8L4.4,1.8L3.4,0L.9,0L0,1.8z"/>
                        <path id="shape27" transform="translate(10.54,-0.01)" stroke="#8d9cb1" fill="#e9ebef" d="M0,1.8L4.4,1.8L3.4,0L.9,0L0,1.8z"/>
                        <path id="shape28" transform="translate(0.01,0.01)" stroke="#8d9cb1" fill="#e9ebef" d="M0,1.8L4.4,1.8L3.4,0L.9,0L0,1.8z"/>
                        <path id="shape29" transform="translate(3.62,0.01)" stroke="#8d9cb1" fill="#e9ebef" d="M0,1.8L4.4,1.8L3.4,0L.9,0L0,1.8z"/>
                    </g>
                    <g transform="translate(22.73,0)">
                        <path id="shape30" transform="translate(6.93,-0.01)" stroke="#8d9cb1" fill="#e9ebef" d="M0,1.8L4.4,1.8L3.4,0L.9,0L0,1.8z"/>
                        <path id="shape31" transform="translate(10.54,-0.01)" stroke="#8d9cb1" fill="#e9ebef" d="M0,1.8L4.4,1.8L3.4,0L.9,0L0,1.8z"/>
                        <path id="shape32" transform="translate(0.01,0.01)" stroke="#8d9cb1" fill="#e9ebef" d="M0,1.8L4.4,1.8L3.4,0L.9,0L0,1.8z"/>
                        <path id="shape33" transform="translate(3.62,0.01)" stroke="#8d9cb1" fill="#e9ebef" d="M0,1.8L4.4,1.8L3.4,0L.9,0L0,1.8z"/>
                    </g>
                    <g transform="translate(6.6,0)">
                        <path id="shape34" transform="translate(6.93,-0.01)" stroke="#8d9cb1" fill="#e9ebef" d="M0,1.8L4.4,1.8L3.4,0L.9,0L0,1.8z"/>
                        <path id="shape35" transform="translate(10.54,-0.01)" stroke="#8d9cb1" fill="#e9ebef" d="M0,1.8L4.4,1.8L3.4,0L.9,0L0,1.8z"/>
                        <path id="shape36" transform="translate(0.01,0.01)" stroke="#8d9cb1" fill="#e9ebef" d="M0,1.8L4.4,1.8L3.4,0L.9,0L0,1.8z"/>
                        <path id="shape37" transform="translate(3.62,0.01)" stroke="#8d9cb1" fill="#e9ebef" d="M0,1.8L4.4,1.8L3.4,0L.9,0L0,1.8z"/>
                    </g>
                    <path id="shape38" transform="translate(-0.01,-0.01)" stroke="#8d9cb1" fill="#e9ebef" d="M-0,1.8L3.5,1.8L3,0L.6,0L-0,1.8z"/>
                </g>
                <g transform="translate(2.44,0.41)">
                    <path id="shape39" transform="translate(0.02,0)" stroke="#8d9cb1" fill="#e9ebef" d="M0,1.5L3.2,1.5L2.8,0L.4,0L0,1.5z"/>
                    <g transform="translate(7.18,0)">
                        <path id="shape40" transform="translate(0,0.02)" stroke="#8d9cb1" fill="#e9ebef" d="M0,1.5L3.4,1.5L2.9,0L.4,0L0,1.5z"/>
                        <path id="shape41" transform="translate(3.45,0.02)" stroke="#8d9cb1" fill="#e9ebef" d="M0,1.5L3.1,1.5L2.7,0L.4,0L0,1.5z"/>
                        <path id="shape42" transform="translate(6.94,0.02)" stroke="#8d9cb1" fill="#e9ebef" d="M0,1.5L3.4,1.5L2.9,0L.4,0L0,1.5z"/>
                        <path id="shape43" transform="translate(10.34,0.02)" stroke="#8d9cb1" fill="#e9ebef" d="M0,1.5L3.4,1.5L3,0L.4,0L0,1.5z"/>
                    </g>
                    <g transform="translate(23.27,-0.01)">
                        <path id="shape44" transform="translate(0,0.02)" stroke="#8d9cb1" fill="#e9ebef" d="M0,1.5L3.4,1.5L2.9,0L.4,0L0,1.5z"/>
                        <path id="shape45" transform="translate(3.45,0.02)" stroke="#8d9cb1" fill="#e9ebef" d="M0,1.5L3.1,1.5L2.7,0L.4,0L0,1.5z"/>
                        <path id="shape46" transform="translate(6.94,0.02)" stroke="#8d9cb1" fill="#e9ebef" d="M0,1.5L3.4,1.5L2.9,0L.4,0L0,1.5z"/>
                        <path id="shape47" transform="translate(10.34,0.02)" stroke="#8d9cb1" fill="#e9ebef" d="M0,1.5L3.4,1.5L3,0L.4,0L0,1.5z"/>
                    </g>
                    <g transform="translate(39.08,0)">
                        <path id="shape48" transform="translate(0,0.02)" stroke="#8d9cb1" fill="#e9ebef" d="M0,1.5L3.4,1.5L2.9,0L.4,0L0,1.5z"/>
                        <path id="shape49" transform="translate(3.45,0.02)" stroke="#8d9cb1" fill="#e9ebef" d="M0,1.5L3.1,1.5L2.7,0L.4,0L0,1.5z"/>
                        <path id="shape50" transform="translate(6.94,0.02)" stroke="#8d9cb1" fill="#e9ebef" d="M0,1.5L3.4,1.5L2.9,0L.4,0L0,1.5z"/>
                        <path id="shape51" transform="translate(10.34,0.02)" stroke="#8d9cb1" fill="#e9ebef" d="M0,1.5L3.4,1.5L3,0L.4,0L0,1.5z"/>
                    </g>
                </g>
                <g transform="translate(1.97,0.93)">
                    <path id="shape52" transform="translate(-0.04,-0.01)" stroke="#8d9cb1" fill="#e9ebef" d="M0,1.8L3.8,1.8L3,0L.8,0L0,1.8z"/>
                    <path id="shape53" transform="translate(2.84,-0.01)" stroke="#8d9cb1" fill="#e9ebef" d="M0,1.8L4.6,1.8L3.6,0L1,0L0,1.8z"/>
                    <path id="shape54" transform="translate(6.67,-0.02)" stroke="#8d9cb1" fill="#e9ebef" d="M0,1.8L4.6,1.8L3.6,0L1,0L0,1.8z"/>
                    <path id="shape55" transform="translate(10.26,-0.02)" stroke="#8d9cb1" fill="#e9ebef" d="M0,1.8L4.5,1.8L3.6,0L.9,0L0,1.8z"/>
                    <path id="shape56" transform="translate(13.8,-0.02)" stroke="#8d9cb1" fill="#e9ebef" d="M0,1.8L4.6,1.8L3.6,0L1,0L0,1.8z"/>
                    <path id="shape57" transform="translate(17.51,-0.02)" stroke="#8d9cb1" fill="#e9ebef" d="M0,1.8L4.6,1.8L3.6,0L1,0L0,1.8z"/>
                    <path id="shape58" transform="translate(21.26,-0.02)" stroke="#8d9cb1" fill="#e9ebef" d="M0,1.8L4.6,1.8L3.6,0L1,0L0,1.8z"/>
                    <path id="shape59" transform="translate(24.86,-0.02)" stroke="#8d9cb1" fill="#e9ebef" d="M0,1.8L4.5,1.8L3.6,0L.9,0L0,1.8z"/>
                    <path id="shape60" transform="translate(28.54,-0.02)" stroke="#8d9cb1" fill="#e9ebef" d="M0,1.8L4.6,1.8L3.6,0L.9,0L0,1.8z"/>
                    <path id="shape61" transform="translate(32.2,0.01)" stroke="#8d9cb1" fill="#e9ebef" d="M0,1.8L4.4,1.8L3.4,0L.9,0L0,1.8z"/>
                    <path id="shape62" transform="translate(35.73,0.01)" stroke="#8d9cb1" fill="#e9ebef" d="M0,1.8L4.4,1.8L3.4,0L.9,0L0,1.8z"/>
                    <path id="shape63" transform="translate(39.31,0.01)" stroke="#8d9cb1" fill="#e9ebef" d="M0,1.8L4.4,1.8L3.4,0L.9,0L0,1.8z"/>
                    <path id="shape64" transform="translate(42.73,0.01)" stroke="#8d9cb1" fill="#e9ebef" d="M0,1.8L4.3,1.8L3.4,0L.9,0L0,1.8z"/>
                    <path id="shape65" transform="translate(46.23,0.01)" stroke="#8d9cb1" fill="#e9ebef" d="M0,1.8L4.4,1.8L3.4,0L.9,0L0,1.8z"/>
                </g>
                <g transform="translate(2.13,1.24)">
                    <path id="shape66" transform="translate(43.32,0.04)" stroke="#8d9cb1" fill="#e9ebef" d="M0,1.5L3.6,1.5L3,0L.4,0L0,1.5z"/>
                    <path id="shape67" transform="translate(46.87,0.07)" stroke="#8d9cb1" fill="#e9ebef" d="M0,1.5L3.6,1.5L3,0L.4,0L0,1.5z"/>
                    <path id="shape68" transform="translate(-0.01,0.06)" stroke="#8d9cb1" fill="#e9ebef" d="M-0,1.5L2.9,1.4L2.6,0L.3,0L-0,1.5z"/>
                    <g transform="translate(3.26,0.02)">
                        <path id="shape69" transform="translate(0.01,0.04)" stroke="#8d9cb1" fill="#e9ebef" d="M0,1.5L3.5,1.5L3.1,0L.4,0L0,1.5z"/>
                        <path id="shape70" transform="translate(3.75,0.05)" stroke="#8d9cb1" fill="#e9ebef" d="M0,1.5L3.5,1.5L3,0L.4,0L0,1.5z"/>
                        <path id="shape71" transform="translate(7.45,0.05)" stroke="#8d9cb1" fill="#e9ebef" d="M0,1.5L3.5,1.5L3.1,0L.4,0L0,1.5z"/>
                        <path id="shape72" transform="translate(11.03,0.06)" stroke="#8d9cb1" fill="#e9ebef" d="M0,1.5L3.5,1.5L3,0L.4,0L0,1.5z"/>
                        <path id="shape73" transform="translate(14.57,0.05)" stroke="#8d9cb1" fill="#e9ebef" d="M0,1.5L3.5,1.5L3.1,0L.4,0L0,1.5z"/>
                        <path id="shape74" transform="translate(18.3,0.06)" stroke="#8d9cb1" fill="#e9ebef" d="M0,1.5L3.5,1.5L3,0L.4,0L0,1.5z"/>
                        <path id="shape75" transform="translate(21.89,0.03)" stroke="#8d9cb1" fill="#e9ebef" d="M0,1.5L3.5,1.5L2.9,0L.4,0L0,1.5z"/>
                        <path id="shape76" transform="translate(25.43,0.07)" stroke="#8d9cb1" fill="#e9ebef" d="M0,1.5L3.5,1.5L3,0L.4,0L0,1.5z"/>
                        <path id="shape77" transform="translate(29.13,-0.03)" stroke="#8d9cb1" fill="#e9ebef" d="M0,1.5L3.5,1.5L2.9,0L.4,0L0,1.5z"/>
                        <path id="shape78" transform="translate(32.67,0.02)" stroke="#8d9cb1" fill="#e9ebef" d="M0,1.5L3.5,1.5L3,0L.4,0L0,1.5z"/>
                        <path id="shape79" transform="translate(36.16,-0.01)" stroke="#8d9cb1" fill="#e9ebef" d="M0,1.5L3.5,1.5L3,0L.4,0L0,1.5z"/>
                    </g>
                </g>
                <g transform="translate(1.8,1.58)">
                    <path id="shape80" transform="translate(0.02,0.04)" stroke="#8d9cb1" fill="#e9ebef" d="M-0,1.7L5.9,1.8L4.8,-0L.5,0L-0,1.7z"/>
                    <path id="shape81" transform="translate(48.68,0.02)" stroke="#8d9cb1" fill="#e9ebef" d="M0,1.8L5.9,1.8L5.4,-0L.7,0L0,1.8z"/>
                    <path id="shape82" transform="translate(4.69,0.01)" stroke="#8d9cb1" fill="#e9ebef" d="M0,1.8L4.7,1.8L3.6,0L1,0L0,1.8z"/>
                    <path id="shape83" transform="translate(8.42,0.01)" stroke="#8d9cb1" fill="#e9ebef" d="M0,1.8L4.7,1.8L3.6,0L1,0L0,1.8z"/>
                    <path id="shape84" transform="translate(12.28,0.06)" stroke="#8d9cb1" fill="#e9ebef" d="M0,1.8L4.7,1.8L3.6,0L1,0L0,1.8z"/>
                    <path id="shape85" transform="translate(15.9,0.06)" stroke="#8d9cb1" fill="#e9ebef" d="M0,1.8L4.6,1.8L3.6,0L.9,0L0,1.8z"/>
                    <path id="shape86" transform="translate(19.47,0.06)" stroke="#8d9cb1" fill="#e9ebef" d="M0,1.8L4.7,1.8L3.6,0L1,0L0,1.8z"/>
                    <path id="shape87" transform="translate(23.21,0.06)" stroke="#8d9cb1" fill="#e9ebef" d="M0,1.8L4.7,1.8L3.6,0L1,0L0,1.8z"/>
                    <path id="shape88" transform="translate(26.99,0.04)" stroke="#8d9cb1" fill="#e9ebef" d="M0,1.8L4.7,1.8L3.6,0L1,0L0,1.8z"/>
                    <path id="shape89" transform="translate(30.6,0.04)" stroke="#8d9cb1" fill="#e9ebef" d="M0,1.8L4.6,1.8L3.6,0L.9,0L0,1.8z"/>
                    <path id="shape90" transform="translate(34.31,0.05)" stroke="#8d9cb1" fill="#e9ebef" d="M0,1.8L4.6,1.8L3.6,0L.9,0L0,1.8z"/>
                    <path id="shape91" transform="translate(37.93,0.05)" stroke="#8d9cb1" fill="#e9ebef" d="M0,1.8L4.4,1.8L3.4,0L.9,0L0,1.8z"/>
                    <path id="shape92" transform="translate(41.54,0.05)" stroke="#8d9cb1" fill="#e9ebef" d="M0,1.8L4.4,1.8L3.4,0L.9,0L0,1.8z"/>
                    <path id="shape93" transform="translate(45.13,0.02)" stroke="#8d9cb1" fill="#e9ebef" d="M0,1.8L4.4,1.8L3.4,0L.9,0L0,1.8z"/>
                </g>
                <g transform="translate(1.87,1.86)">
                    <path id="shape94" transform="translate(0.01,0.08)" stroke="#8d9cb1" fill="#e9ebef" d="M-0,1.5L4.9,1.4L4.3,0L.5,0L-0,1.5z"/>
                    <path id="shape95" transform="translate(49.51,0.05)" stroke="#8d9cb1" fill="#e9ebef" d="M0,1.5L4.7,1.5L4.4,-0L.3,.1L0,1.5z"/>
                    <g transform="translate(4.94,0.03)">
                        <path id="shape96" transform="translate(0.01,0.04)" stroke="#8d9cb1" fill="#e9ebef" d="M0,1.5L3.6,1.5L3.2,0L.4,0L0,1.5z"/>
                        <path id="shape97" transform="translate(3.81,0.05)" stroke="#8d9cb1" fill="#e9ebef" d="M0,1.5L3.6,1.5L3,0L.4,0L0,1.5z"/>
                        <path id="shape98" transform="translate(7.57,0.05)" stroke="#8d9cb1" fill="#e9ebef" d="M0,1.5L3.6,1.5L3.2,0L.4,0L0,1.5z"/>
                        <path id="shape99" transform="translate(11.21,0.06)" stroke="#8d9cb1" fill="#e9ebef" d="M0,1.5L3.6,1.5L3,0L.4,0L0,1.5z"/>
                        <path id="shape100" transform="translate(14.8,0.05)" stroke="#8d9cb1" fill="#e9ebef" d="M0,1.5L3.6,1.5L3.2,0L.4,0L0,1.5z"/>
                        <path id="shape101" transform="translate(18.59,0.06)" stroke="#8d9cb1" fill="#e9ebef" d="M0,1.5L3.6,1.5L3,0L.4,0L0,1.5z"/>
                        <path id="shape102" transform="translate(22.24,0.03)" stroke="#8d9cb1" fill="#e9ebef" d="M0,1.5L3.6,1.5L2.9,0L.4,0L0,1.5z"/>
                        <path id="shape103" transform="translate(25.84,0.07)" stroke="#8d9cb1" fill="#e9ebef" d="M0,1.5L3.6,1.5L3,0L.4,0L0,1.5z"/>
                        <path id="shape104" transform="translate(29.59,-0.03)" stroke="#8d9cb1" fill="#e9ebef" d="M0,1.5L3.6,1.5L2.9,0L.4,0L0,1.5z"/>
                        <path id="shape105" transform="translate(33.19,0.02)" stroke="#8d9cb1" fill="#e9ebef" d="M0,1.5L3.6,1.5L3,0L.4,0L0,1.5z"/>
                        <path id="shape106" transform="translate(36.74,-0.01)" stroke="#8d9cb1" fill="#e9ebef" d="M0,1.5L3.6,1.5L3,0L.4,0L0,1.5z"/>
                    </g>
                    <path id="shape107" transform="translate(45.31,0.07)" stroke="#8d9cb1" fill="#e9ebef" d="M0,1.5L3.6,1.5L2.9,0L.4,0L0,1.5z"/>
                </g>
                <g transform="translate(1.8,2.2)">
                    <path id="shape108" transform="translate(-0.02,0.07)" stroke="#8d9cb1" fill="#e9ebef" d="M-0,1.7L6.7,1.8L5.5,-0L.5,0L-0,1.7z"/>
                    <path id="shape109" transform="translate(45.81,0.04)" stroke="#8d9cb1" fill="#e9ebef" d="M0,1.8L8.8,1.8L8.1,-0L1.1,0L0,1.8z"/>
                    <g transform="translate(5.48,0)">
                        <path id="shape110" transform="translate(0.01,0.04)" stroke="#8d9cb1" fill="#e9ebef" d="M0,1.8L4.7,1.8L3.6,0L1,0L0,1.8z"/>
                        <path id="shape111" transform="translate(3.74,0.04)" stroke="#8d9cb1" fill="#e9ebef" d="M0,1.8L4.7,1.8L3.6,0L1,0L0,1.8z"/>
                        <path id="shape112" transform="translate(7.6,0.03)" stroke="#8d9cb1" fill="#e9ebef" d="M0,1.8L4.7,1.8L3.6,0L1,0L0,1.8z"/>
                        <path id="shape113" transform="translate(11.22,0.03)" stroke="#8d9cb1" fill="#e9ebef" d="M0,1.8L4.6,1.8L3.6,0L.9,0L0,1.8z"/>
                        <path id="shape114" transform="translate(14.79,0.03)" stroke="#8d9cb1" fill="#e9ebef" d="M0,1.8L4.7,1.8L3.6,0L1,0L0,1.8z"/>
                        <path id="shape115" transform="translate(18.52,0.03)" stroke="#8d9cb1" fill="#e9ebef" d="M0,1.8L4.7,1.8L3.6,0L1,0L0,1.8z"/>
                        <path id="shape116" transform="translate(22.31,0.08)" stroke="#8d9cb1" fill="#e9ebef" d="M0,1.8L4.7,1.8L3.6,0L1,0L0,1.8z"/>
                        <path id="shape117" transform="translate(25.92,0.08)" stroke="#8d9cb1" fill="#e9ebef" d="M0,1.8L4.6,1.8L3.6,0L.9,0L0,1.8z"/>
                        <path id="shape118" transform="translate(29.63,0.08)" stroke="#8d9cb1" fill="#e9ebef" d="M0,1.8L4.6,1.8L3.6,0L.9,0L0,1.8z"/>
                        <path id="shape119" transform="translate(33.25,0.08)" stroke="#8d9cb1" fill="#e9ebef" d="M0,1.8L4.4,1.8L3.4,0L.9,0L0,1.8z"/>
                        <path id="shape120" transform="translate(36.86,0.08)" stroke="#8d9cb1" fill="#e9ebef" d="M0,1.8L4.4,1.8L3.4,0L.9,0L0,1.8z"/>
                    </g>
                </g>
                <path id="shape121" transform="translate(0.89,6.42)" stroke="#8d9cb1" fill="#e9ebef" d="M0,0L85.4,0L85.4,1.3L0,1.3L0,0z"/>
                <g transform="translate(1.87,2.55)">
                    <path id="shape122" transform="translate(0.01,0.05)" stroke="#8d9cb1" fill="#e9ebef" d="M-0,1.5L5.4,1.4L4.7,0L.5,0L-0,1.5z"/>
                    <path id="shape123" transform="translate(46.46,0.02)" stroke="#8d9cb1" fill="#e9ebef" d="M0,1.5L7.9,1.5L7.4,-0L.6,.1L0,1.5z"/>
                    <g transform="translate(6.03,0)">
                        <path id="shape124" transform="translate(0.01,0.04)" stroke="#8d9cb1" fill="#e9ebef" d="M0,1.5L3.6,1.5L3.2,0L.4,0L0,1.5z"/>
                        <path id="shape125" transform="translate(3.81,0.05)" stroke="#8d9cb1" fill="#e9ebef" d="M0,1.5L3.6,1.5L3,0L.4,0L0,1.5z"/>
                        <path id="shape126" transform="translate(7.57,0.05)" stroke="#8d9cb1" fill="#e9ebef" d="M0,1.5L3.6,1.5L3.2,0L.4,0L0,1.5z"/>
                        <path id="shape127" transform="translate(11.21,0.06)" stroke="#8d9cb1" fill="#e9ebef" d="M0,1.5L3.6,1.5L3,0L.4,0L0,1.5z"/>
                        <path id="shape128" transform="translate(14.8,0.05)" stroke="#8d9cb1" fill="#e9ebef" d="M0,1.5L3.6,1.5L3.2,0L.4,0L0,1.5z"/>
                        <path id="shape129" transform="translate(18.59,0.06)" stroke="#8d9cb1" fill="#e9ebef" d="M0,1.5L3.6,1.5L3,0L.4,0L0,1.5z"/>
                        <path id="shape130" transform="translate(22.24,0.03)" stroke="#8d9cb1" fill="#e9ebef" d="M0,1.5L3.6,1.5L2.9,0L.4,0L0,1.5z"/>
                        <path id="shape131" transform="translate(25.84,0.07)" stroke="#8d9cb1" fill="#e9ebef" d="M0,1.5L3.6,1.5L3,0L.4,0L0,1.5z"/>
                        <path id="shape132" transform="translate(29.59,-0.03)" stroke="#8d9cb1" fill="#e9ebef" d="M0,1.5L3.6,1.5L2.9,0L.4,0L0,1.5z"/>
                        <path id="shape133" transform="translate(33.19,0.02)" stroke="#8d9cb1" fill="#e9ebef" d="M0,1.5L3.6,1.5L3,0L.4,0L0,1.5z"/>
                        <path id="shape134" transform="translate(36.74,-0.01)" stroke="#8d9cb1" fill="#e9ebef" d="M0,1.5L3.6,1.5L3,0L.4,0L0,1.5z"/>
                    </g>
                </g>
                <g transform="translate(1.52,3.03)">
                    <path id="shape135" transform="translate(-0.01,0.06)" stroke="#8d9cb1" fill="#e9ebef" d="M0,1.7L9.1,1.8L7.9,-0L.6,0L0,1.7z"/>
                    <path id="shape136" transform="translate(7.87,0.03)" stroke="#8d9cb1" fill="#e9ebef" d="M0,1.8L4.7,1.8L3.6,0L1,0L0,1.8z"/>
                    <path id="shape137" transform="translate(11.61,0.03)" stroke="#8d9cb1" fill="#e9ebef" d="M0,1.8L4.7,1.8L3.6,0L1,0L0,1.8z"/>
                    <path id="shape138" transform="translate(15.47,0.02)" stroke="#8d9cb1" fill="#e9ebef" d="M0,1.8L4.7,1.8L3.6,0L1,0L0,1.8z"/>
                    <path id="shape139" transform="translate(19.08,0.02)" stroke="#8d9cb1" fill="#e9ebef" d="M0,1.8L4.6,1.8L3.6,0L.9,0L0,1.8z"/>
                    <path id="shape140" transform="translate(22.66,0.02)" stroke="#8d9cb1" fill="#e9ebef" d="M0,1.8L4.7,1.8L3.6,0L1,0L0,1.8z"/>
                    <path id="shape141" transform="translate(26.39,0.02)" stroke="#8d9cb1" fill="#e9ebef" d="M0,1.8L4.7,1.8L3.6,0L1,0L0,1.8z"/>
                    <path id="shape142" transform="translate(30.17,0.07)" stroke="#8d9cb1" fill="#e9ebef" d="M0,1.8L4.7,1.8L3.6,0L1,0L0,1.8z"/>
                    <path id="shape143" transform="translate(33.79,0.07)" stroke="#8d9cb1" fill="#e9ebef" d="M0,1.8L4.6,1.8L3.6,0L.9,0L0,1.8z"/>
                    <path id="shape144" transform="translate(37.5,0.07)" stroke="#8d9cb1" fill="#e9ebef" d="M0,1.8L4.6,1.8L3.6,0L.9,0L0,1.8z"/>
                    <path id="shape145" transform="translate(41.11,0.07)" stroke="#8d9cb1" fill="#e9ebef" d="M0,1.8L4.4,1.8L3.4,0L.9,0L0,1.8z"/>
                    <path id="shape146" transform="translate(44.54,0.03)" stroke="#8d9cb1" fill="#e9ebef" d="M0,1.8L10.5,1.8L9.8,-0L1.1,0L0,1.8z"/>
                </g>
                <g transform="translate(1.45,3.31)">
                    <path id="shape147" transform="translate(8.5,0.03)" stroke="#8d9cb1" fill="#e9ebef" d="M0,1.5L3.6,1.5L3.2,0L.4,0L0,1.5z"/>
                    <path id="shape148" transform="translate(0.07,0.03)" stroke="#8d9cb1" fill="#e9ebef" d="M-0,1.5L8.4,1.5L7.8,-0L.7,0L-0,1.5z"/>
                    <path id="shape149" transform="translate(12.3,0.04)" stroke="#8d9cb1" fill="#e9ebef" d="M0,1.5L3.6,1.5L3,0L.4,0L0,1.5z"/>
                    <path id="shape150" transform="translate(16.05,0.04)" stroke="#8d9cb1" fill="#e9ebef" d="M0,1.5L3.6,1.5L3.2,0L.4,0L0,1.5z"/>
                    <path id="shape151" transform="translate(19.69,0.05)" stroke="#8d9cb1" fill="#e9ebef" d="M0,1.5L3.6,1.5L3,0L.4,0L0,1.5z"/>
                    <path id="shape152" transform="translate(23.29,0.04)" stroke="#8d9cb1" fill="#e9ebef" d="M0,1.5L3.6,1.5L3.2,0L.4,0L0,1.5z"/>
                    <path id="shape153" transform="translate(27.08,0.05)" stroke="#8d9cb1" fill="#e9ebef" d="M0,1.5L3.6,1.5L3,0L.4,0L0,1.5z"/>
                    <path id="shape154" transform="translate(30.73,0.02)" stroke="#8d9cb1" fill="#e9ebef" d="M0,1.5L3.6,1.5L2.9,0L.4,0L0,1.5z"/>
                    <path id="shape155" transform="translate(34.33,0.06)" stroke="#8d9cb1" fill="#e9ebef" d="M0,1.5L3.6,1.5L3,0L.4,0L0,1.5z"/>
                    <path id="shape156" transform="translate(38.08,-0.04)" stroke="#8d9cb1" fill="#e9ebef" d="M0,1.5L3.6,1.5L2.9,0L.4,0L0,1.5z"/>
                    <path id="shape157" transform="translate(41.68,0)" stroke="#8d9cb1" fill="#e9ebef" d="M0,1.5L3.6,1.5L3,0L.4,0L0,1.5z"/>
                    <path id="shape158" transform="translate(45.01,-0.02)" stroke="#8d9cb1" fill="#e9ebef" d="M0,1.5L9.9,1.5L9.3,-0L.7,.1L0,1.5z"/>
                </g>
                <g transform="translate(1.24,4)">
                    <path id="shape159" transform="translate(5.34,0)" stroke="#8d9cb1" fill="#e9ebef" d="M-0,1.8L5.2,1.8L4.4,0L.9,0L-0,1.8z"/>
                    <path id="shape160" transform="translate(0,0.03)" stroke="#8d9cb1" fill="#e9ebef" d="M0,1.8L6.1,1.8L5.1,-0L.5,0L0,1.8z"/>
                    <path id="shape161" transform="translate(9.91,0)" stroke="#8d9cb1" fill="#e9ebef" d="M0,1.8L5.5,1.8L4.5,0L1,0L0,1.8z"/>
                    <path id="shape162" transform="translate(14.4,0)" stroke="#8d9cb1" fill="#e9ebef" d="M0,1.8L22.4,1.8L20.9,0L1.3,0L0,1.8z"/>
                    <path id="shape163" transform="translate(35.79,0.02)" stroke="#8d9cb1" fill="#e9ebef" d="M-0,1.8L5.2,1.8L4.4,0L.9,0L-0,1.8z"/>
                    <path id="shape164" transform="translate(40.24,0)" stroke="#8d9cb1" fill="#e9ebef" d="M0,1.8L5.5,1.8L4.5,0L1,0L0,1.8z"/>
                    <path id="shape165" transform="translate(44.9,-0)" stroke="#8d9cb1" fill="#e9ebef" d="M-0,1.8L5.2,1.8L4.4,0L.9,0L-0,1.8z"/>
                    <path id="shape166" transform="translate(49.14,0)" stroke="#8d9cb1" fill="#e9ebef" d="M0,1.8L6.3,1.8L5.6,0L1.1,0L0,1.8z"/>
                </g>
                <path id="shape167" transform="translate(61.76,3.03)" stroke="#8d9cb1" fill="#e9ebef" d="M.1,1.8L4,1.9L3,0L.4,0L.1,1.8z"/>
                <path id="shape168" transform="translate(61.87,3.41)" stroke="#8d9cb1" fill="#e9ebef" d="M0,1.3L3.5,1.3L3.1,0L.4,0L0,1.3z"/>
                <g transform="translate(58.29,3.98)">
                    <path id="shape169" transform="translate(-0.01,-0.01)" stroke="#8d9cb1" fill="#e9ebef" d="M.1,1.8L4,1.9L3,0L.4,0L.1,1.8z"/>
                    <path id="shape170" transform="translate(3.2,0.04)" stroke="#8d9cb1" fill="#e9ebef" d="M0,1.8L4.5,1.8L3.6,0L.8,0L0,1.8z"/>
                    <path id="shape171" transform="translate(6.89,0.05)" stroke="#8d9cb1" fill="#e9ebef" d="M-0,1.8L4.1,1.8L3.7,.6L.6,0L-0,1.8z"/>
                </g>
                <g transform="translate(57.37,0.65)">
                    <path id="shape172" transform="translate(-0.01,-0.02)" stroke="#8d9cb1" fill="#e9ebef" d="M.1,1.8L4.1,1.9L3,0L.4,0L.1,1.8z"/>
                    <path id="shape173" transform="translate(3.22,0.03)" stroke="#8d9cb1" fill="#e9ebef" d="M0,1.8L4.5,1.8L3.7,0L.8,0L0,1.8z"/>
                    <path id="shape174" transform="translate(6.95,0.03)" stroke="#8d9cb1" fill="#e9ebef" d="M-0,1.8L4.1,1.8L3.2,0L.7,0L-0,1.8z"/>
                </g>
                <g transform="translate(57.37,1.06)">
                    <path id="shape175" transform="translate(-0.02,0.01)" stroke="#8d9cb1" fill="#e9ebef" d="M0,1.3L3.7,1.3L3.3,0L.4,0L0,1.3z"/>
                    <path id="shape176" transform="translate(3.65,0.02)" stroke="#8d9cb1" fill="#e9ebef" d="M0,1.3L3.4,1.3L3.1,0L.4,0L0,1.3z"/>
                    <path id="shape177" transform="translate(7.08,0.01)" stroke="#8d9cb1" fill="#e9ebef" d="M0,1.3L3.7,1.3L3.3,0L.4,0L0,1.3z"/>
                </g>
                <g transform="translate(57.38,1.31)">
                    <path id="shape178" transform="translate(-0.01,-0.01)" stroke="#8d9cb1" fill="#e9ebef" d="M.1,1.8L4,1.9L3,0L.4,0L.1,1.8z"/>
                    <path id="shape179" transform="translate(3.2,0.04)" stroke="#8d9cb1" fill="#e9ebef" d="M0,1.8L4.5,1.8L3.6,0L.8,0L0,1.8z"/>
                    <path id="shape180" transform="translate(6.89,0.05)" stroke="#8d9cb1" fill="#e9ebef" d="M-0,1.8L4.1,1.8L3.7,.6L.6,0L-0,1.8z"/>
                </g>
                <g transform="translate(57.47,1.86)">
                    <path id="shape181" transform="translate(-0.02,0.01)" stroke="#8d9cb1" fill="#e9ebef" d="M0,1.3L3.7,1.3L3.3,0L.5,0L0,1.3z"/>
                    <path id="shape182" transform="translate(3.68,0.02)" stroke="#8d9cb1" fill="#e9ebef" d="M0,1.3L3.5,1.3L3.1,0L.4,0L0,1.3z"/>
                    <path id="shape183" transform="translate(7.13,0.01)" stroke="#8d9cb1" fill="#e9ebef" d="M0,1.3L3.7,1.3L3.3,0L.5,0L0,1.3z"/>
                </g>
                <g transform="translate(70.19,1.03)">
                    <path id="shape184" transform="translate(-0.02,-0)" stroke="#8d9cb1" fill="#e9ebef" d="M0,1.3L3.5,1.3L3.1,0L.4,0L0,1.3z"/>
                    <path id="shape185" transform="translate(3.56,0.01)" stroke="#8d9cb1" fill="#e9ebef" d="M0,1.3L3.3,1.3L2.9,0L.4,0L0,1.3z"/>
                    <path id="shape186" transform="translate(7.22,-0)" stroke="#8d9cb1" fill="#e9ebef" d="M0,1.3L3,1.2L2.5,0L.3,0L0,1.3z"/>
                    <path id="shape187" transform="translate(10.35,0.03)" stroke="#8d9cb1" fill="#e9ebef" d="M0,1.3L3.2,1.2L2.7,0L.5,0L0,1.3z"/>
                </g>
                <path id="shape188" transform="translate(80.73,1.4)" stroke="#8d9cb1" fill="#e9ebef" d="M0,2.6L4.3,2.5L3,0L.7,0L0,2.6z"/>
                <path id="shape189" transform="translate(81.47,2.7)" stroke="#8d9cb1" fill="#e9ebef" d="M0,1.3L3.3,1.3L2.9,0L.4,0L0,1.3z"/>
                <g transform="translate(70.23,1.42)">
                    <path id="shape190" transform="translate(-0.01,-0.01)" stroke="#8d9cb1" fill="#e9ebef" d="M.2,1.8L4.2,1.9L3.1,0L.6,0L.2,1.8z"/>
                    <path id="shape191" transform="translate(3.37,0.04)" stroke="#8d9cb1" fill="#e9ebef" d="M0,1.8L4.4,1.8L3.6,0L.8,0L0,1.8z"/>
                    <path id="shape192" transform="translate(7.03,0.05)" stroke="#8d9cb1" fill="#e9ebef" d="M-0,1.8L4,1.8L3.1,0L.6,0L-0,1.8z"/>
                </g>
                <g transform="translate(70.51,1.85)">
                    <path id="shape193" transform="translate(-0.02,0.01)" stroke="#8d9cb1" fill="#e9ebef" d="M0,1.3L3.7,1.3L3.3,0L.5,0L0,1.3z"/>
                    <path id="shape194" transform="translate(3.68,0.02)" stroke="#8d9cb1" fill="#e9ebef" d="M0,1.3L3.5,1.3L3.1,0L.4,0L0,1.3z"/>
                    <path id="shape195" transform="translate(7.13,0.01)" stroke="#8d9cb1" fill="#e9ebef" d="M0,1.3L3.2,1.3L2.8,0L.4,0L0,1.3z"/>
                </g>
                <g transform="translate(70.46,2.23)">
                    <path id="shape196" transform="translate(0.01,0.01)" stroke="#8d9cb1" fill="#e9ebef" d="M.2,1.8L4.3,1.9L3.2,0L.5,0L.2,1.8z"/>
                    <path id="shape197" transform="translate(3.44,0.06)" stroke="#8d9cb1" fill="#e9ebef" d="M0,1.8L4.6,1.8L3.7,0L.8,0L0,1.8z"/>
                    <path id="shape198" transform="translate(7.21,0.07)" stroke="#8d9cb1" fill="#e9ebef" d="M-0,1.8L4.2,1.8L3.2,0L.7,0L-0,1.8z"/>
                </g>
                <g transform="translate(70.72,2.67)">
                    <path id="shape199" transform="translate(-0.02,0.01)" stroke="#8d9cb1" fill="#e9ebef" d="M0,1.3L3.7,1.3L3.3,0L.4,0L0,1.3z"/>
                    <path id="shape200" transform="translate(3.65,0.02)" stroke="#8d9cb1" fill="#e9ebef" d="M0,1.3L3.4,1.3L3.1,0L.4,0L0,1.3z"/>
                    <path id="shape201" transform="translate(7.08,0.01)" stroke="#8d9cb1" fill="#e9ebef" d="M0,1.3L3.7,1.3L3.3,0L.4,0L0,1.3z"/>
                </g>
                <g transform="translate(70.8,3.03)">
                    <path id="shape202" transform="translate(-0.01,-0.01)" stroke="#8d9cb1" fill="#e9ebef" d="M.1,1.8L4.1,1.9L3,0L.4,0L.1,1.8z"/>
                    <path id="shape203" transform="translate(3.26,0.04)" stroke="#8d9cb1" fill="#e9ebef" d="M0,1.8L4.5,1.8L3.7,0L.8,0L0,1.8z"/>
                    <path id="shape204" transform="translate(7.02,0.05)" stroke="#8d9cb1" fill="#e9ebef" d="M-0,1.8L4.1,1.8L3.8,.6L.7,0L-0,1.8z"/>
                </g>
                <g transform="translate(71.02,3.42)">
                    <path id="shape205" transform="translate(-0.02,0.01)" stroke="#8d9cb1" fill="#e9ebef" d="M0,1.3L3.7,1.3L3.3,0L.5,0L0,1.3z"/>
                    <path id="shape206" transform="translate(3.68,0.02)" stroke="#8d9cb1" fill="#e9ebef" d="M0,1.3L3.5,1.3L3.1,0L.4,0L0,1.3z"/>
                    <path id="shape207" transform="translate(7.13,0.01)" stroke="#8d9cb1" fill="#e9ebef" d="M0,1.3L3.7,1.3L3.3,0L.5,0L0,1.3z"/>
                </g>
                <path id="shape208" transform="translate(81.64,3.07)" stroke="#8d9cb1" fill="#e9ebef" d="M.3,2.9L4.1,2.8L3.8,1.5L2.9,0L.3,0L-0,1.3L.3,2.9z"/>
                <g transform="translate(70.81,4.06)">
                    <path id="shape209" transform="translate(0.02,0.03)" stroke="#8d9cb1" fill="#e9ebef" d="M.3,1.8L8.3,1.9L6.8,0L1,0L.3,1.8z"/>
                    <path id="shape210" transform="translate(7.26,0)" stroke="#8d9cb1" fill="#e9ebef" d="M0,1.9L3.9,1.9L3.4,.1L.8,0L0,1.9z"/>
                </g>
                <g transform="translate(1.13,4.58)">
                    <path id="shape211" transform="translate(5.98,0)" stroke="#8d9cb1" fill="#e9ebef" d="M0,1.3L4.5,1.3L4.1,0L.6,0L0,1.3z"/>
                    <path id="shape212" transform="translate(0,0)" stroke="#8d9cb1" fill="#e9ebef" d="M-0,1.3L6,1.3L5.5,-0L.5,0L-0,1.3z"/>
                    <path id="shape213" transform="translate(10.63,0)" stroke="#8d9cb1" fill="#e9ebef" d="M0,1.3L4.5,1.3L4.1,0L.6,0L0,1.3z"/>
                    <path id="shape214" transform="translate(15.41,-0)" stroke="#8d9cb1" fill="#e9ebef" d="M-0,1.3L20.7,1.3L20.2,0L.5,0L-0,1.3z"/>
                    <path id="shape215" transform="translate(36.23,0)" stroke="#8d9cb1" fill="#e9ebef" d="M0,1.3L4.5,1.3L4.1,0L.6,0L0,1.3z"/>
                    <path id="shape216" transform="translate(40.83,0.04)" stroke="#8d9cb1" fill="#e9ebef" d="M0,1.3L4.5,1.3L4.1,0L.6,0L0,1.3z"/>
                    <path id="shape217" transform="translate(45.55,0.04)" stroke="#8d9cb1" fill="#e9ebef" d="M0,1.3L4.5,1.3L4.1,0L.6,0L0,1.3z"/>
                    <path id="shape218" transform="translate(50.19,-0.01)" stroke="#8d9cb1" fill="#e9ebef" d="M-0,1.3L5.2,1.3L4.8,-0L.5,0L-0,1.3z"/>
                    <path id="shape219" transform="translate(57.26,0.04)" stroke="#8d9cb1" fill="#e9ebef" d="M0,1.3L3.7,1.3L3.3,0L.5,0L0,1.3z"/>
                    <path id="shape220" transform="translate(60.96,0)" stroke="#8d9cb1" fill="#e9ebef" d="M0,1.3L3.3,1.3L3,0L.4,0L0,1.3z"/>
                    <path id="shape221" transform="translate(64.41,0.04)" stroke="#8d9cb1" fill="#e9ebef" d="M0,1.3L3.7,1.3L3.3,0L.5,0L0,1.3z"/>
                    <path id="shape222" transform="translate(70,0.01)" stroke="#8d9cb1" fill="#e9ebef" d="M0,1.3L7.4,1.3L6.7,0L.9,0L0,1.3z"/>
                    <path id="shape223" transform="translate(77.46,0.04)" stroke="#8d9cb1" fill="#e9ebef" d="M0,1.3L3.3,1.3L3,0L.4,0L0,1.3z"/>
                    <path id="shape224" transform="translate(80.87,0.01)" stroke="#8d9cb1" fill="#e9ebef" d="M0,1.3L3.7,1.3L3.3,0L.5,0L0,1.3z"/>
                </g>
            </g>
            <g transform="translate(43.94,0)">
                <path id="shape225" transform="translate(19.18,76.68)" stroke="#8d9cb1" fill="#e9ebef" d="M0,.2L0,2.4C0,2.4,-0.2,3.8,1.8,3.8C5.8,4.1,16.1,4.7,29.5,4.7C43.2,4.7,51.5,4.2,54.4,4C55.6,4,55.6,2.3,55.6,2.3L55.6,0C55.6,0,19.2,4.7,0,.2z"/>
                <path id="shape226" transform="translate(19.21,74.06)" stroke="#8d9cb1" fill="#e9ebef" d="M22.8,0C22.8,0,4.2,.3,.2,2.6C-3.7,4.9,44.8,6.6,55,3.1C57.8,2.1,49.6,0,22.8,0z"/>
                <path id="shape227" transform="translate(19.21,74.06)" stroke="#8d9cb1" fill="#e9ebef" d="M22.8,0C22.8,0,4.2,.3,.2,2.6C-3.7,4.9,44.8,6.6,55,3.1C57.8,2.1,49.6,0,22.8,0z"/>
                <path id="shape228" transform="translate(42.64,64.39)" stroke="#8d9cb1" fill="#e9ebef" d="M0,0L9.5,0L9.5,12.7L0,12.7L0,0z"/>
                <path id="shape229" transform="translate(0.87,-0)" stroke="#8d9cb1" fill="#e9ebef" d="M.4,0L92.6,0C92.8,0,93,.2,93,.4L93,66.8C93,67,92.8,67.2,92.6,67.2L.4,67.2C.2,67.2,0,67,0,66.8L0,.4C0,.2,.2,0,.4,0z"/>
                <path id="shape230" transform="translate(5.79,4.72)" stroke="#8d9cb1" fill="#e9ebef" d="M0,0L83.2,0L83.2,57.6L0,57.6L0,0z"/>
                <path id="shape231" transform="matrix(-1,0,0,1,74.9,74.1)" stroke="#8d9cb1" fill="#e9ebef" d="M23,0C23,0,2.7,.4,.2,2.6C-3.3,5.6,45,6.6,55.2,3.1C58,2.1,49.8,0,23,0z"/>
            </g>
            <text class="st1">
                <tspan x="52" y="110.5">应用程序</tspan>
            </text>
        </g>
        <g transform="translate(314.02,0)">
            <g>
                <path id="shape232" transform="translate(0.24,0)" stroke="#8d9cb1" fill="#e9ebef" d="M0,25.1L.7,23.4L56.1,0L93.5,9.7L36.6,47L0,25.1z"/>
                <path id="shape233" transform="translate(20.06,9.65)" stroke="#8d9cb1" fill="#e9ebef" d="M14.7,114L73.9,81.8L73.9,1.1L15.5,27.6L0,74.5L14.7,114z"/>
                <path id="shape234" transform="translate(-0.01,23.37)" stroke="#8d9cb1" fill="#e9ebef" d="M1.2,0L34.4,13.1C35.1,13.3,35.5,14,35.6,14.3L35.6,99.2C35.6,99.9,35.1,100.3,34.4,100.3L1.2,84C.3,83.5,.1,83.2,0,82.8L0,1.1C0,.5,.5,0,1.2,0z"/>
                <path id="shape235" transform="translate(31.99,8.85)" stroke="#8d9cb1" fill="#e9ebef" d="M0,27C2.5,28,2.8,28,4.7,29.6C5.7,30.4,6.2,33.1,6.2,33.1L61.9,2.4C61.9,2.4,62.2,1.2,61.7,.8C61.3,.5,57.8,0,57.8,0L0,27z"/>
                <path id="shape236" transform="translate(31.66,35.57)" stroke="#8d9cb1" fill="#e9ebef" d="M-0,0C1.6,0,6.2,2.2,6.4,6C6.5,7.2,6.4,85.9,6.4,85.9C6.4,85.9,3.3,88.5,2.9,88.1C2.6,87.7,.1,86.8,.1,86.8L-0,0z"/>
                <path id="shape237" transform="translate(0.14,24)" stroke="#8d9cb1" fill="#e9ebef" d="M21.2,7.2L10.6,87.9L0,83.4L0,.3C0,.3,-0.3,-0.3,1.2,.2L21.2,7.2z"/>
                <g transform="translate(0.08,34.01)">
                    <path id="shape238" transform="translate(0.13,-0)" stroke="#8d9cb1" fill="#e9ebef" d="M0,0L0,1.8L19.4,10.8L19.4,8.9L0,0z"/>
                    <path id="shape239" transform="translate(0.13,12.12)" stroke="#8d9cb1" fill="#e9ebef" d="M0,0L0,2L19.4,10.9L19.4,8.7L0,0z"/>
                    <path id="shape240" transform="translate(-0,24.34)" stroke="#8d9cb1" fill="#e9ebef" d="M0,0L0,2.1L19.5,11.1L19.5,9.1L0,0z"/>
                    <path id="shape241" transform="translate(0.17,36.99)" stroke="#8d9cb1" fill="#e9ebef" d="M0,0L0,2.1L19.3,10.9L19.3,8.9L0,0z"/>
                    <path id="shape242" transform="translate(17.98,8.33)" stroke="#8d9cb1" fill="#e9ebef" d="M0,0L0,1.8L17.5,9.4L17.5,7.7L0,0z"/>
                    <path id="shape243" transform="translate(17.98,20.16)" stroke="#8d9cb1" fill="#e9ebef" d="M0,0L0,2.2L17.6,10L17.6,8L0,0z"/>
                    <path id="shape244" transform="translate(17.88,32.7)" stroke="#8d9cb1" fill="#e9ebef" d="M0,0L17.7,7.9L17.7,9.8L0,2.2L0,0z"/>
                    <path id="shape245" transform="translate(17.88,45.04)" stroke="#8d9cb1" fill="#e9ebef" d="M0,0L17.7,8.3L17.7,10.1L0,2.2L0,0z"/>
                    <path id="shape246" transform="translate(18.92,8.75)" stroke="#8d9cb1" fill="#e9ebef" d="M0,0L13.2,5.8L14.7,8.5L0,2L0,0z"/>
                    <path id="shape247" transform="translate(18.69,20.37)" stroke="#8d9cb1" fill="#e9ebef" d="M0,0L13.1,6L14.6,9L.1,2.4L0,0z"/>
                    <path id="shape248" transform="translate(18.85,33.08)" stroke="#8d9cb1" fill="#e9ebef" d="M0,0L13.2,5.9L14.7,8.8L0,2.3L0,0z"/>
                    <path id="shape249" transform="translate(18.85,45.61)" stroke="#8d9cb1" fill="#e9ebef" d="M0,0L13.2,5.8L14.7,8.5L0,2L0,0z"/>
                    <path id="shape250" transform="translate(18.85,45.61)" stroke="#8d9cb1" fill="#e9ebef" d="M0,0L15.2,7L15.2,8.9L2.1,3.1L0,0z"/>
                    <path id="shape251" transform="translate(19.1,33.03)" stroke="#8d9cb1" fill="#e9ebef" d="M0,0L15.2,7L15.2,8.9L2.1,3.1L0,0z"/>
                    <path id="shape252" transform="translate(19.15,20.74)" stroke="#8d9cb1" fill="#e9ebef" d="M0,0L15.2,7L15.2,8.9L2.1,3.1L0,0z"/>
                    <path id="shape253" transform="translate(19.15,8.57)" stroke="#8d9cb1" fill="#e9ebef" d="M0,0L15.2,7L15.2,8.9L2.1,3.1L0,0z"/>
                </g>
            </g>
            <g transform="translate(52.64,78.45)">
                <path id="shape254" stroke="#8d9cb1" fill="#e9ebef" d="M0,0L0,37.6C0,42,7.4,45.5,16.4,45.5C25.5,45.5,32.9,42,32.9,37.6L32.9,0C32.9,4.4,25.5,7.9,16.4,7.9C7.4,7.9,0,4.4,0,0z"/>
                <path id="shape255" transform="translate(0,-7.9)" stroke="#8d9cb1" fill="#e9ebef" d="M0,7.9C0,3.5,7.4,0,16.4,0C25.5,0,32.9,3.5,32.9,7.9C32.9,12.3,25.5,15.8,16.4,15.8C7.4,15.8,0,12.3,0,7.9z"/>
            </g>
            <text class="st1">
                <tspan x="8" y="140.5">数据库服务器</tspan>
            </text>
        </g>
        <g id="shape256" transform="translate(358.52,101)">
            <text class="st2">
                <tspan x="7" y="16">数据库</tspan>
            </text>
        </g>
        <path id="shape257" stroke-width="5.33333" transform="translate(146.02,131)" stroke="#e9ebef" fill="none" d="M0,0L153.4,0"/>
        <g id="shape258" transform="translate(146.3,71.13)">
            <path stroke="#e49cb1" fill="#f9ebef" d="M0,0L132.5,0L157.2,15.7L132.5,31.5L0,31.5L24.7,15.7L0,0z"/>
            <text class="st3">
                <tspan x="49.1" y="20.2">操作和查询</tspan>
            </text>
        </g>
        <g id="shape259" transform="matrix(-1,0,0,-1,303.5,52.9)">
            <path stroke="#e49cb1" fill="#f9ebef" d="M0,0L132.5,0L157.2,15.7L132.5,31.5L0,31.5L24.7,15.7L0,0z"/>
            <text class="st3" transform="matrix(-1,0,0,-1,163.2,31.5)">
                <tspan x="36.1" y="20.2">响应和提供数据</tspan>
            </text>
        </g>
    </g>
</svg>
